#!OML:ASF H:\Dans Jumps\Project 1\Capture day 1\Session 1\subject.ASF
:FULLY-SPECIFIED
:DEGREES
469
root 0.623323 17.7185 2.16047 8.99859 -0.0186383 -1.01479
lowerback -0.394801 -0.163418 -0.84644
upperback 1.5323 -0.236452 1.90207
thorax 1.80354 -0.145622 2.42186
lowerneck -12.7382 -0.569957 -1.86547
upperneck 25.9059 -0.622749 0.965273
head 10.3875 -0.354442 0.58301
rclavicle -7.95139e-016 -1.51076e-014
rhumerus -27.3638 -27.1779 -75.1146
rradius 17.8675
rwrist 50.669
rhand -21.261 -27.7186
rfingers 7.12502
rthumb 5.12235 -57.6367
lclavicle -7.95139e-016 -1.51076e-014
lhumerus -23.7304 11.2206 84.8952
lradius 10.2772
lwrist -6.55606
lhand -26.2071 -6.78809
lfingers 7.12502
lthumb 0.345763 23.1914
rfemur -17.2842 -1.81984 19.2931
rtibia 24.6355
rfoot -13.7744 -0.0161992
rtoes 9.95125
lfemur -16.0352 6.44838 -17.9832
ltibia 20.1946
lfoot -9.97518 4.55766
ltoes -3.40697
470
root 0.627215 17.7164 2.18291 8.96762 -0.00153576 -1.02437
lowerback -0.439493 -0.17553 -0.844985
upperback 1.50321 -0.252487 1.91135
thorax 1.7996 -0.15343 2.43018
lowerneck -12.7501 -0.549719 -1.85255
upperneck 25.8563 -0.591387 0.945305
head 10.371 -0.340993 0.577467
rclavicle -3.8763e-015 1.43125e-014
rhumerus -27.2063 -26.8327 -75.3467
rradius 17.9653
rwrist 50.2783
rhand -21.2489 -27.72
rfingers 7.12502
rthumb 5.134 -57.6378
lclavicle -3.8763e-015 1.43125e-014
lhumerus -23.6904 10.9589 85.0893
lradius 10.3558
lwrist -6.34488
lhand -26.2126 -6.85466
lfingers 7.12502
lthumb 0.340383 23.1248
rfemur -17.1672 -1.86276 19.2973
rtibia 24.6385
rfoot -13.8381 -0.0540056
rtoes 10.1206
lfemur -15.9494 6.43064 -17.9763
ltibia 20.2572
lfoot -10.0652 4.59231
ltoes -3.42599
471
root 0.631189 17.7144 2.205 8.93855 0.0138652 -1.04259
lowerback -0.488313 -0.183618 -0.835651
upperback 1.47319 -0.263319 1.92434
thorax 1.79676 -0.158555 2.43796
lowerneck -12.7576 -0.533766 -1.84035
upperneck 25.8051 -0.565993 0.925362
head 10.3533 -0.33033 0.571313
rclavicle -2.98177e-016 1.31198e-014
rhumerus -27.0578 -26.5124 -75.557
rradius 18.0592
rwrist 49.8985
rhand -21.2431 -27.7121
rfingers 7.12502
rthumb 5.13963 -57.6298
lclavicle -2.98177e-016 1.31198e-014
lhumerus -23.6524 10.6905 85.2924
lradius 10.4398
lwrist -6.12779
lhand -26.2091 -6.91514
lfingers 7.12502
lthumb 0.343792 23.0643
rfemur -17.0566 -1.92352 19.3143
rtibia 24.6409
rfoot -13.8937 -0.0854184
rtoes 10.2984
lfemur -15.8697 6.40709 -17.9594
ltibia 20.3267
lfoot -10.1575 4.63532
ltoes -3.4403
472
root 0.635162 17.7122 2.22675 8.90872 0.0225629 -1.07268
lowerback -0.539037 -0.186825 -0.816305
upperback 1.44497 -0.26788 1.94127
thorax 1.7965 -0.16047 2.44429
lowerneck -12.7629 -0.521266 -1.82404
upperneck 25.7493 -0.5449 0.899468
head 10.3335 -0.321907 0.561797
rclavicle -2.68359e-015 -1.59028e-015
rhumerus -26.9144 -26.1766 -75.7649
rradius 18.1653
rwrist 49.482
rhand -21.2354 -27.7029
rfingers 7.12502
rthumb 5.14706 -57.6204
lclavicle -2.68359e-015 -1.59028e-015
lhumerus -23.613 10.3816 85.5153
lradius 10.5312
lwrist -5.8454
lhand -26.1844 -6.92369
lfingers 7.12502
lthumb 0.367628 23.0557
rfemur -16.9524 -1.99944 19.3484
rtibia 24.6453
rfoot -13.9401 -0.110779
rtoes 10.4352
lfemur -15.7915 6.38021 -17.9283
ltibia 20.4003
lfoot -10.2505 4.68754
ltoes -3.45101
